<mxfile host="app.diagrams.net" modified="2024-01-04T05:22:14.157Z" agent="Mozilla/5.0 (Windows NT 10.0; Win64; x64) AppleWebKit/537.36 (KHTML, like Gecko) Chrome/120.0.0.0 Safari/537.36" etag="z7fYYGOlnAakDRzO-dE_" version="22.1.16" type="device">
  <diagram id="C5RBs43oDa-KdzZeNtuy" name="Page-1">
    <mxGraphModel dx="1080" dy="797" grid="1" gridSize="10" guides="1" tooltips="1" connect="1" arrows="1" fold="1" page="1" pageScale="1" pageWidth="827" pageHeight="1169" math="0" shadow="0">
      <root>
        <mxCell id="WIyWlLk6GJQsqaUBKTNV-0" />
        <mxCell id="WIyWlLk6GJQsqaUBKTNV-1" parent="WIyWlLk6GJQsqaUBKTNV-0" />
        <mxCell id="wiRiU_mxtbHIBElc89tv-6" value="" style="edgeStyle=orthogonalEdgeStyle;rounded=0;orthogonalLoop=1;jettySize=auto;html=1;" edge="1" parent="WIyWlLk6GJQsqaUBKTNV-1" source="wiRiU_mxtbHIBElc89tv-8" target="wiRiU_mxtbHIBElc89tv-5">
          <mxGeometry relative="1" as="geometry" />
        </mxCell>
        <mxCell id="wiRiU_mxtbHIBElc89tv-0" value="만 14세이상/ 이하&amp;nbsp;" style="ellipse;whiteSpace=wrap;html=1;fillColor=#f8cecc;strokeColor=#b85450;" vertex="1" parent="WIyWlLk6GJQsqaUBKTNV-1">
          <mxGeometry x="670" y="190" width="120" height="80" as="geometry" />
        </mxCell>
        <mxCell id="wiRiU_mxtbHIBElc89tv-22" value="" style="edgeStyle=orthogonalEdgeStyle;rounded=0;orthogonalLoop=1;jettySize=auto;html=1;" edge="1" parent="WIyWlLk6GJQsqaUBKTNV-1" source="wiRiU_mxtbHIBElc89tv-1" target="wiRiU_mxtbHIBElc89tv-21">
          <mxGeometry relative="1" as="geometry" />
        </mxCell>
        <mxCell id="wiRiU_mxtbHIBElc89tv-27" value="" style="edgeStyle=orthogonalEdgeStyle;rounded=0;orthogonalLoop=1;jettySize=auto;html=1;" edge="1" parent="WIyWlLk6GJQsqaUBKTNV-1" source="wiRiU_mxtbHIBElc89tv-1" target="wiRiU_mxtbHIBElc89tv-17">
          <mxGeometry relative="1" as="geometry" />
        </mxCell>
        <mxCell id="wiRiU_mxtbHIBElc89tv-29" value="" style="edgeStyle=orthogonalEdgeStyle;rounded=0;orthogonalLoop=1;jettySize=auto;html=1;" edge="1" parent="WIyWlLk6GJQsqaUBKTNV-1" source="wiRiU_mxtbHIBElc89tv-1" target="wiRiU_mxtbHIBElc89tv-28">
          <mxGeometry relative="1" as="geometry" />
        </mxCell>
        <mxCell id="wiRiU_mxtbHIBElc89tv-1" value="로그인" style="ellipse;whiteSpace=wrap;html=1;aspect=fixed;fillColor=#fff2cc;strokeColor=#d6b656;" vertex="1" parent="WIyWlLk6GJQsqaUBKTNV-1">
          <mxGeometry x="300" y="10" width="80" height="80" as="geometry" />
        </mxCell>
        <mxCell id="wiRiU_mxtbHIBElc89tv-26" value="" style="edgeStyle=orthogonalEdgeStyle;rounded=0;orthogonalLoop=1;jettySize=auto;html=1;" edge="1" parent="WIyWlLk6GJQsqaUBKTNV-1" source="wiRiU_mxtbHIBElc89tv-2" target="wiRiU_mxtbHIBElc89tv-25">
          <mxGeometry relative="1" as="geometry" />
        </mxCell>
        <mxCell id="wiRiU_mxtbHIBElc89tv-2" value="마이페이지" style="ellipse;whiteSpace=wrap;html=1;aspect=fixed;fillColor=#dae8fc;strokeColor=#6c8ebf;" vertex="1" parent="WIyWlLk6GJQsqaUBKTNV-1">
          <mxGeometry x="300" y="450" width="80" height="80" as="geometry" />
        </mxCell>
        <mxCell id="wiRiU_mxtbHIBElc89tv-10" value="" style="edgeStyle=orthogonalEdgeStyle;rounded=0;orthogonalLoop=1;jettySize=auto;html=1;" edge="1" parent="WIyWlLk6GJQsqaUBKTNV-1" source="wiRiU_mxtbHIBElc89tv-5" target="wiRiU_mxtbHIBElc89tv-9">
          <mxGeometry relative="1" as="geometry" />
        </mxCell>
        <mxCell id="wiRiU_mxtbHIBElc89tv-36" value="" style="edgeStyle=orthogonalEdgeStyle;rounded=0;orthogonalLoop=1;jettySize=auto;html=1;" edge="1" parent="WIyWlLk6GJQsqaUBKTNV-1" source="wiRiU_mxtbHIBElc89tv-5" target="wiRiU_mxtbHIBElc89tv-35">
          <mxGeometry relative="1" as="geometry" />
        </mxCell>
        <mxCell id="wiRiU_mxtbHIBElc89tv-5" value="기본정보 입력&lt;br&gt;이름&lt;br&gt;연락처&lt;br&gt;생년월일&lt;br&gt;혈액형&lt;br&gt;닉네임&lt;br&gt;아이디&lt;br&gt;비밀번호&lt;br&gt;비밀번호 확인&lt;br&gt;이메일" style="rounded=1;whiteSpace=wrap;html=1;fillColor=#d5e8d4;strokeColor=#82b366;" vertex="1" parent="WIyWlLk6GJQsqaUBKTNV-1">
          <mxGeometry x="640" y="460" width="120" height="160" as="geometry" />
        </mxCell>
        <mxCell id="wiRiU_mxtbHIBElc89tv-33" value="" style="edgeStyle=orthogonalEdgeStyle;rounded=0;orthogonalLoop=1;jettySize=auto;html=1;" edge="1" parent="WIyWlLk6GJQsqaUBKTNV-1" source="wiRiU_mxtbHIBElc89tv-7" target="wiRiU_mxtbHIBElc89tv-0">
          <mxGeometry relative="1" as="geometry" />
        </mxCell>
        <mxCell id="wiRiU_mxtbHIBElc89tv-7" value="회원가입" style="ellipse;whiteSpace=wrap;html=1;fillColor=#f8cecc;strokeColor=#b85450;" vertex="1" parent="WIyWlLk6GJQsqaUBKTNV-1">
          <mxGeometry x="670" y="80" width="120" height="80" as="geometry" />
        </mxCell>
        <mxCell id="wiRiU_mxtbHIBElc89tv-9" value="가입완료" style="ellipse;whiteSpace=wrap;html=1;" vertex="1" parent="WIyWlLk6GJQsqaUBKTNV-1">
          <mxGeometry x="640" y="730" width="120" height="80" as="geometry" />
        </mxCell>
        <mxCell id="wiRiU_mxtbHIBElc89tv-31" value="" style="edgeStyle=orthogonalEdgeStyle;rounded=0;orthogonalLoop=1;jettySize=auto;html=1;" edge="1" parent="WIyWlLk6GJQsqaUBKTNV-1" source="wiRiU_mxtbHIBElc89tv-17" target="wiRiU_mxtbHIBElc89tv-18">
          <mxGeometry relative="1" as="geometry" />
        </mxCell>
        <mxCell id="wiRiU_mxtbHIBElc89tv-17" value="3개월이상 비밀번호 변경" style="rounded=1;whiteSpace=wrap;html=1;" vertex="1" parent="WIyWlLk6GJQsqaUBKTNV-1">
          <mxGeometry x="70" y="90" width="120" height="60" as="geometry" />
        </mxCell>
        <mxCell id="wiRiU_mxtbHIBElc89tv-18" value="다음에하기/ 비밀번호변경" style="ellipse;whiteSpace=wrap;html=1;" vertex="1" parent="WIyWlLk6GJQsqaUBKTNV-1">
          <mxGeometry x="70" y="200" width="120" height="80" as="geometry" />
        </mxCell>
        <mxCell id="wiRiU_mxtbHIBElc89tv-24" value="" style="edgeStyle=orthogonalEdgeStyle;rounded=0;orthogonalLoop=1;jettySize=auto;html=1;" edge="1" parent="WIyWlLk6GJQsqaUBKTNV-1" source="wiRiU_mxtbHIBElc89tv-20" target="wiRiU_mxtbHIBElc89tv-2">
          <mxGeometry relative="1" as="geometry" />
        </mxCell>
        <mxCell id="wiRiU_mxtbHIBElc89tv-20" value="로그아웃&lt;br style=&quot;border-color: var(--border-color);&quot;&gt;마이페이지&lt;br style=&quot;border-color: var(--border-color);&quot;&gt;헌혈의집 찾기&lt;br style=&quot;border-color: var(--border-color);&quot;&gt;헌혈예약&lt;br style=&quot;border-color: var(--border-color);&quot;&gt;프로모션&lt;br style=&quot;border-color: var(--border-color);&quot;&gt;헌혈내역조회&lt;br style=&quot;border-color: var(--border-color);&quot;&gt;검사결과조회&lt;br style=&quot;border-color: var(--border-color);&quot;&gt;증명서발급&lt;br style=&quot;border-color: var(--border-color);&quot;&gt;자주하는 질문&lt;br&gt;오늘의 혈액보유" style="rounded=1;whiteSpace=wrap;html=1;fillColor=#d5e8d4;strokeColor=#82b366;" vertex="1" parent="WIyWlLk6GJQsqaUBKTNV-1">
          <mxGeometry x="252.5" y="250" width="175" height="150" as="geometry" />
        </mxCell>
        <mxCell id="wiRiU_mxtbHIBElc89tv-23" value="" style="edgeStyle=orthogonalEdgeStyle;rounded=0;orthogonalLoop=1;jettySize=auto;html=1;" edge="1" parent="WIyWlLk6GJQsqaUBKTNV-1" source="wiRiU_mxtbHIBElc89tv-21" target="wiRiU_mxtbHIBElc89tv-20">
          <mxGeometry relative="1" as="geometry" />
        </mxCell>
        <mxCell id="wiRiU_mxtbHIBElc89tv-21" value="로그인 성공 &lt;br&gt;메인페이지 이동" style="ellipse;whiteSpace=wrap;html=1;" vertex="1" parent="WIyWlLk6GJQsqaUBKTNV-1">
          <mxGeometry x="273.75" y="120" width="132.5" height="80" as="geometry" />
        </mxCell>
        <mxCell id="wiRiU_mxtbHIBElc89tv-25" value="헌혈내역&lt;br&gt;-헌혈기록&lt;br&gt;-검사결과&lt;br&gt;&lt;br&gt;헌혈증서&lt;br&gt;-헌혈증서 조회&lt;br&gt;-헌혈증서 재발급 신청&lt;br&gt;-헌혈증사 재발급 신청내역&lt;br&gt;&lt;br&gt;헌혈예약 내역&lt;br&gt;-예약일시&lt;br&gt;-헌혈종류&lt;br&gt;-예약장소&lt;br&gt;-예약자전화번호&lt;br&gt;&lt;br&gt;프로모션 신청내역&lt;br&gt;&lt;br&gt;개인정보수정&lt;br&gt;&lt;br&gt;회원탈퇴&lt;br&gt;" style="whiteSpace=wrap;html=1;fillColor=#d5e8d4;strokeColor=#82b366;" vertex="1" parent="WIyWlLk6GJQsqaUBKTNV-1">
          <mxGeometry x="70" y="650" width="250" height="340" as="geometry" />
        </mxCell>
        <mxCell id="wiRiU_mxtbHIBElc89tv-32" value="" style="edgeStyle=orthogonalEdgeStyle;rounded=0;orthogonalLoop=1;jettySize=auto;html=1;" edge="1" parent="WIyWlLk6GJQsqaUBKTNV-1" source="wiRiU_mxtbHIBElc89tv-28" target="wiRiU_mxtbHIBElc89tv-7">
          <mxGeometry relative="1" as="geometry" />
        </mxCell>
        <mxCell id="wiRiU_mxtbHIBElc89tv-28" value="로그인 실패&lt;br&gt;아이디,비밀번호찾기&lt;br&gt;회원가입" style="rounded=1;whiteSpace=wrap;html=1;fillColor=#e1d5e7;strokeColor=#9673a6;" vertex="1" parent="WIyWlLk6GJQsqaUBKTNV-1">
          <mxGeometry x="470" y="90" width="120" height="60" as="geometry" />
        </mxCell>
        <mxCell id="wiRiU_mxtbHIBElc89tv-30" value="" style="edgeStyle=orthogonalEdgeStyle;rounded=0;orthogonalLoop=1;jettySize=auto;html=1;" edge="1" parent="WIyWlLk6GJQsqaUBKTNV-1" source="wiRiU_mxtbHIBElc89tv-0" target="wiRiU_mxtbHIBElc89tv-8">
          <mxGeometry relative="1" as="geometry">
            <mxPoint x="580" y="90" as="sourcePoint" />
            <mxPoint x="680" y="390" as="targetPoint" />
          </mxGeometry>
        </mxCell>
        <mxCell id="wiRiU_mxtbHIBElc89tv-8" value="약관동의&lt;br&gt;실명확인&lt;br&gt;휴대폰인증" style="ellipse;whiteSpace=wrap;html=1;fillColor=#f8cecc;strokeColor=#b85450;" vertex="1" parent="WIyWlLk6GJQsqaUBKTNV-1">
          <mxGeometry x="640" y="310" width="120" height="80" as="geometry" />
        </mxCell>
        <mxCell id="wiRiU_mxtbHIBElc89tv-38" value="" style="edgeStyle=orthogonalEdgeStyle;rounded=0;orthogonalLoop=1;jettySize=auto;html=1;" edge="1" parent="WIyWlLk6GJQsqaUBKTNV-1" source="wiRiU_mxtbHIBElc89tv-35" target="wiRiU_mxtbHIBElc89tv-37">
          <mxGeometry relative="1" as="geometry" />
        </mxCell>
        <mxCell id="wiRiU_mxtbHIBElc89tv-35" value="실패&lt;br&gt;아이디 중복&amp;nbsp;&lt;br&gt;비밀번호 조건 x&lt;br&gt;이메일 오입력" style="rounded=1;whiteSpace=wrap;html=1;fillColor=#e1d5e7;strokeColor=#9673a6;" vertex="1" parent="WIyWlLk6GJQsqaUBKTNV-1">
          <mxGeometry x="460" y="520" width="125" height="70" as="geometry" />
        </mxCell>
        <mxCell id="wiRiU_mxtbHIBElc89tv-37" value="다시 입력 유도&lt;br&gt;템플릿유지" style="ellipse;whiteSpace=wrap;html=1;" vertex="1" parent="WIyWlLk6GJQsqaUBKTNV-1">
          <mxGeometry x="465" y="630" width="120" height="80" as="geometry" />
        </mxCell>
      </root>
    </mxGraphModel>
  </diagram>
</mxfile>
